<svg
  xmlns="http://www.w3.org/2000/svg"
  viewBox="0 0 128 128"
  role="img"
  aria-label="PowerShell"
>
  <title>PowerShell</title>
  <defs>
    <linearGradient
      id="pwsh-grad"
      x1="95.1"
      y1="91.8"
      x2="26.9"
      y2="30.8"
      gradientUnits="userSpaceOnUse"
    >
      <stop offset="0" stop-color="#5391FE" />
      <stop offset="1" stop-color="#3E6DBF" />
    </linearGradient>
  </defs>
  <!-- Background Shape -->
  <path
    fill="url(#pwsh-grad)"
    d="M9.49 109c-1.62 0-3.02-.64-3.94-1.8-.94-1.18-1.27-2.81-.89-4.47l17.83-77.91C23.24 21.56 26.38 19 29.63 19H118.5c1.62 0 3.02.64 3.94 1.8.94 1.18 1.27 2.81.89 4.47l-17.83 77.91c-.75 3.26-3.88 5.82-7.14 5.82H9.49z"
  />
  <!-- Gloss/Inner Shape -->
  <path
    fill="url(#pwsh-grad)"
    d="M29.63 20H118.5c2.77 0 4.5 2.26 3.86 5.05l-17.83 77.91c-.64 2.79-3.4 5.05-6.17 5.05H9.49c-2.77 0-4.5-2.26-3.86-5.05l17.83-77.91C24.1 22.26 26.87 20 29.63 20z"
  />
  <!-- Shadow for Prompt -->
  <path
    fill="#2C5591"
    d="M64.17 87.56h21.61c2.51 0 4.55 2.13 4.55 4.75 0 2.62-2.04 4.75-4.55 4.75H64.17c-2.51 0-4.55-2.13-4.55-4.75 0-2.62 2.04-4.75 4.55-4.75zM78.18 66.46c-.37.75-1.14 1.57-2.51 2.53L35.56 97.8c-2.19 1.59-5.33 1-7.02-1.32-1.69-2.32-1.28-5.49.91-7.08L65.62 63.2v-.54L42.9 38.49c-1.85-1.97-1.66-5.16.43-7.12 2.09-1.96 5.29-1.95 7.14.02l27.27 29.01c1.55 1.64 1.67 4.14.44 6.06z"
  />
  <!-- White Prompt Elements -->
  <path
    fill="#FFFFFF"
    d="M77.18 65.46c-.37.75-1.14 1.57-2.51 2.53L34.56 96.8c-2.19 1.59-5.33 1-7.02-1.32-1.69-2.32-1.28-5.49.91-7.08L64.62 62.2v-.54L41.9 37.49c-1.85-1.97-1.66-5.16.43-7.12 2.09-1.96 5.29-1.95 7.14.02l27.27 29.01c1.55 1.64 1.67 4.14.44 6.06zM63.55 87h21.61c2.51 0 4.55 2.02 4.55 4.5 0 2.49-2.04 4.5-4.55 4.5H63.55c-2.51 0-4.55-2.02-4.55-4.5 0-2.49 2.04-4.5 4.55-4.5z"
  />
</svg>
