<svg
  width="300"
  height="298"
  viewBox="0 0 300 298"
  fill="none"
  xmlns="http://www.w3.org/2000/svg"
>
  <defs>
    <linearGradient id="bgGradient" x1="0%" y1="0%" x2="100%" y2="100%">
      <stop offset="0%" stop-color="#8cc63f">
        <animate
          attributeName="stop-color"
          values="#8cc63f;#a8e05c;#8cc63f"
          dur="4s"
          repeatCount="indefinite"
        />
      </stop>
      <stop offset="100%" stop-color="#1e5c2d">
        <animate
          attributeName="stop-color"
          values="#1e5c2d;#2a7a3e;#1e5c2d"
          dur="4s"
          repeatCount="indefinite"
        />
      </stop>
    </linearGradient>
  </defs>
  <rect width="300" height="298" fill="url(#bgGradient)" />
  <path
    d="M229.172 69.7882C221.174 60.6408 209.801 55.814 196.275 55.814C185.026 55.814 172.955 59.2077 161.181 65.4106C154.237 64.0203 146.964 63.2788 139.444 63.2788C93.3264 63.2859 55.814 90.9707 55.814 125.022C55.814 141.328 64.2255 156.6 79.5227 168.164C79.4839 168.286 79.458 168.421 79.4322 168.542C75.1909 189.254 78.6628 207.335 89.2144 219.391C97.2315 228.56 108.604 233.387 122.136 233.387C127.031 233.387 132.087 232.717 137.214 231.483C147.765 248.973 161.847 258.605 176.924 258.605H176.937C207.81 258.605 232.928 217.238 232.928 166.382C232.928 158.596 232.333 151.032 231.234 143.816C234.732 136.202 237.363 128.402 238.96 120.638C243.202 99.9042 239.717 81.8518 229.172 69.7882ZM61.7428 125.022C61.7428 94.5855 96.5979 69.8096 139.438 69.8096C143.847 69.8096 148.153 70.0877 152.369 70.5939C144.571 75.7131 137.013 82.0157 130.076 89.3879C126.126 93.5873 122.537 97.9721 119.266 102.478C116.279 105.116 113.35 107.918 110.544 110.905C96.4751 125.864 86.2338 143.588 81.1649 161.462C68.6155 151.345 61.7428 138.526 61.7428 125.022ZM225.047 142.683C221.736 149.52 217.682 156.179 212.911 162.553C215.484 156.529 217.501 150.44 218.892 144.344C220.734 140.23 222.027 135.931 222.648 131.489C223.598 135.097 224.394 138.825 225.04 142.683H225.047ZM140.026 223.997C137.912 220.033 136.031 215.784 134.395 211.306C136.742 211.634 139.134 211.848 141.643 211.848C153.028 211.848 165.254 208.369 177.157 202.031C165.519 212.597 152.627 220.147 140.033 223.997H140.026ZM141.636 205.31C138.287 205.31 135.112 204.947 132.106 204.291C130.419 198.53 129.132 192.455 128.259 186.174C131.957 186.538 135.675 186.78 139.464 186.78H139.502C167.065 186.78 191.543 176.877 206.782 161.633C203.633 168.599 199.696 175.415 195.028 181.91C178.146 196.705 158.795 205.303 141.636 205.303V205.31ZM123.442 107.169C129.455 101.915 135.778 97.4587 142.192 93.8939C140.356 96.2823 138.604 98.8633 136.936 101.644C126.61 118.976 120.927 141.963 120.927 166.353C120.927 170.539 121.154 174.638 121.483 178.709C115.445 177.683 109.619 176.171 104.117 174.168C100.419 154.682 107.453 129.464 123.442 107.169ZM97.7681 171.551C93.7402 169.711 89.9385 167.587 86.389 165.205C89.8739 151.873 96.488 138.555 105.591 126.441C98.919 142.034 96.1453 157.798 97.7681 171.551ZM176.724 83.898C188.588 83.898 198.48 88.0261 205.346 95.8688C205.366 95.8831 205.385 95.8973 205.405 95.9401C214.495 106.35 217.417 122.277 213.635 140.758C213.525 141.292 213.37 141.813 213.247 142.333C203.012 164.321 173.827 180.242 139.496 180.242H139.431C135.384 180.242 131.421 179.957 127.503 179.522C127.108 175.208 126.856 170.817 126.856 166.346C126.856 143.203 132.19 121.507 141.882 105.23C146.634 97.2734 152.11 91.1133 158.071 86.9566C164.42 84.9603 170.698 83.8909 176.718 83.8909L176.724 83.898ZM122.149 185.44C122.867 191.2 123.927 196.812 125.291 202.195C120.552 200.191 116.395 197.218 112.994 193.339C110.059 189.967 107.887 186.031 106.264 181.732C111.358 183.344 116.66 184.598 122.149 185.44ZM155.647 80.9249C150.869 82.4792 146.078 84.5753 141.326 87.0992C147.908 81.1245 154.916 76.1337 162.028 72.191C165.138 72.8683 168.138 73.674 171.067 74.6079C165.713 75.5134 160.535 77.6452 155.64 80.9249H155.647ZM93.488 214.85C84.6821 204.768 81.6951 189.532 84.9149 171.843C89.3566 174.674 94.1216 177.134 99.1841 179.18C100.988 186.274 104.156 192.626 108.734 197.874C113.764 203.628 120.119 207.67 127.509 209.888C129.313 215.427 131.479 220.675 133.975 225.58C129.94 226.414 125.983 226.849 122.136 226.849C110.253 226.849 100.348 222.693 93.488 214.857V214.85ZM226.999 166.375C226.999 213.609 204.545 252.06 176.937 252.06H176.924C164.44 252.06 152.595 244.16 143.324 229.744C158.938 224.61 174.797 214.215 188.31 199.82C192.286 195.585 195.972 191.129 199.314 186.531C202.23 183.928 205.081 181.19 207.829 178.274C215.122 170.503 221.342 161.997 226.398 153.121C226.805 157.42 226.999 161.869 226.999 166.375ZM233.174 119.183C232.223 123.839 230.865 128.502 229.146 133.129C226.527 121.914 222.596 111.775 217.689 103.191C216.124 100.168 214.256 97.2591 212.109 94.4928C211.333 93.4019 210.525 92.3539 209.639 91.3486C209.109 90.7354 208.521 90.1935 207.946 89.6232C204.506 85.823 200.801 82.6645 196.883 80.1977C189.409 74.993 180.668 70.7793 171.034 67.8632C179.608 64.2912 188.187 62.3591 196.282 62.3591C208.165 62.3591 218.057 66.48 224.911 74.337C234.027 84.7607 236.962 100.689 233.174 119.19V119.183Z"
    fill="white"
  />
</svg>
